<?xml version="1.0" encoding="utf-8"?>
<!-- Generator: Adobe Illustrator 23.0.3, SVG Export Plug-In . SVG Version: 6.00 Build 0)  -->
<svg version="1.1" id="Layer_1" xmlns="http://www.w3.org/2000/svg" xmlns:xlink="http://www.w3.org/1999/xlink" x="0px" y="0px"
	 viewBox="0 0 674 373" style="enable-background:new 0 0 674 373;" xml:space="preserve">
<style type="text/css">
	.st0{fill:#004260;}
</style>
<g>
	<g>
		<path class="st0" d="M-0.1,138.4C-0.1,50.6,61.9,0,132.1,0c33.5,0,57.9,12.9,77.1,29.6l-30,40.1c-14-12.2-27.3-19.3-43.8-19.3
			c-42.5,0-71.9,35.2-71.9,88c0,52.8,29,87.6,70,87.6c20.6,0,39.5-10.1,54.5-22.8L213,244c-24.7,21.9-56,32.4-86.1,32.4
			C55,276.4-0.1,225.8-0.1,138.4z"/>
		<path class="st0" d="M240.6,239.7l28.8-39.3c23.4,18.2,46,29.4,72.8,29.4c28.8,0,42.3-13.5,42.3-31.5c0-22.1-28.5-32-56.7-42.7
			c-34.6-13-74-32.8-74-76.8C253.7,33,290.6,0,349.6,0c36.7,0,66.1,14.9,87.6,31.5l-28.3,38c-18.5-13.5-37-23-57.7-23
			c-26.5,0-39.1,12.7-39.1,29.2c0,20.8,26.6,28.8,55.2,39.3c35.6,13.3,75.5,30.5,75.5,79.6c0,45.3-35.8,81.8-102.4,81.8
			C304.3,276.4,266.3,261,240.6,239.7z"/>
		<path class="st0" d="M471.8,239.7l28.8-39.3c23.4,18.2,46,29.4,72.8,29.4c28.8,0,42.3-13.5,42.3-31.5c0-22.1-28.5-32-56.7-42.7
			c-34.6-13-74-32.8-74-76.8C484.9,33,521.8,0,580.9,0c36.7,0,66.1,14.9,87.6,31.5l-28.3,38c-18.5-13.5-37-23-57.7-23
			c-26.5,0-39.1,12.7-39.1,29.2c0,20.8,26.6,28.8,55.2,39.3c35.6,13.3,75.5,30.5,75.5,79.6c0,45.3-35.8,81.8-102.4,81.8
			C535.6,276.4,497.6,261,471.8,239.7z"/>
	</g>
</g>
<g>
	<g>
		<path class="st0" d="M0.5,336.6c0-14.6,9.2-23.3,20.5-23.3c5.6,0,10.1,2.7,12.9,5.7l-4.2,5.1c-2.3-2.3-5-3.9-8.5-3.9
			c-7.3,0-12.5,6.2-12.5,16.2c0,10.2,4.8,16.4,12.3,16.4c4,0,7-1.8,9.5-4.6l4.2,5c-3.6,4.2-8.3,6.5-14.1,6.5
			C9.5,359.6,0.5,351.3,0.5,336.6z"/>
		<path class="st0" d="M39.6,342c0-11.2,7.6-17.6,16-17.6s16,6.5,16,17.6c0,11.1-7.6,17.6-16,17.6S39.6,353.1,39.6,342z M63.5,342
			c0-6.7-3-11.2-7.9-11.2c-4.9,0-7.9,4.5-7.9,11.2c0,6.7,3,11.2,7.9,11.2C60.5,353.1,63.5,348.7,63.5,342z"/>
		<path class="st0" d="M79.6,325.2h6.5l0.6,4.5h0.2c3-2.9,6.4-5.4,11-5.4c7.2,0,10.3,4.9,10.3,13.3v21h-7.9v-20
			c0-5.5-1.6-7.6-5.2-7.6c-3,0-4.9,1.4-7.7,4.2v23.5h-7.9V325.2z"/>
		<path class="st0" d="M120.7,347.4v-16h-4.8v-5.9l5.2-0.4l0.9-9.2h6.5v9.2h8.6v6.3h-8.6v16c0,3.9,1.5,5.9,4.8,5.9
			c1.1,0,2.5-0.4,3.5-0.8l1.3,5.8c-1.8,0.6-4.2,1.2-6.9,1.2C123.6,359.6,120.7,354.7,120.7,347.4z"/>
		<path class="st0" d="M145.8,325.2h6.5l0.6,6h0.2c2.4-4.4,5.9-6.8,9.5-6.8c1.7,0,2.8,0.2,3.8,0.7l-1.4,6.8c-1.2-0.3-2-0.5-3.4-0.5
			c-2.7,0-5.9,1.8-7.9,6.9v20.5h-7.9V325.2z"/>
		<path class="st0" d="M170,342c0-11.2,7.6-17.6,16-17.6s16,6.5,16,17.6c0,11.1-7.6,17.6-16,17.6S170,353.1,170,342z M193.9,342
			c0-6.7-3-11.2-7.9-11.2c-4.9,0-7.9,4.5-7.9,11.2c0,6.7,3,11.2,7.9,11.2C190.9,353.1,193.9,348.7,193.9,342z"/>
		<path class="st0" d="M208.4,350.1v-39.6h7.9v40c0,1.9,0.9,2.6,1.7,2.6c0.4,0,0.6,0,1.2-0.1l1,5.9c-1,0.4-2.3,0.7-4.2,0.7
			C210.5,359.6,208.4,356,208.4,350.1z"/>
		<path class="st0" d="M245.6,353l4.6-5.4c3.2,3,7.5,5.1,11.6,5.1c5,0,7.8-2.3,7.8-5.8c0-3.7-2.9-4.9-6.9-6.6l-6.1-2.7
			c-4.4-1.8-9-5.3-9-11.8c0-7.1,6.3-12.6,15-12.6c5.2,0,10.3,2.2,13.8,5.7l-4.1,5c-2.8-2.4-5.9-3.8-9.7-3.8c-4.2,0-7,2-7,5.2
			c0,3.5,3.4,4.8,7.1,6.3l6,2.5c5.3,2.2,9,5.6,9,12.1c0,7.2-6,13.3-16,13.3C255.6,359.6,249.8,357.2,245.6,353z"/>
		<path class="st0" d="M281.9,371.8l1.4-6.1c0.6,0.2,1.6,0.5,2.4,0.5c3.5,0,5.6-2.4,6.7-5.8l0.6-2.1l-13.2-33.2h8l5.8,16.5
			c1,3,2,6.3,3,9.5h0.3c0.8-3.1,1.7-6.4,2.6-9.5l5-16.5h7.6L300,360.3c-2.8,7.6-6.3,12.2-13.6,12.2
			C284.5,372.5,283.2,372.3,281.9,371.8z"/>
		<path class="st0" d="M314.9,354.9l3.7-5c3,2.3,5.9,3.7,9.3,3.7c3.7,0,5.4-1.7,5.4-4c0-2.8-3.6-4.1-7.2-5.4
			c-4.4-1.7-9.4-4.2-9.4-9.8c0-5.8,4.7-10,12.2-10c4.7,0,8.4,1.9,11.2,4l-3.6,4.8c-2.4-1.7-4.7-2.9-7.4-2.9c-3.4,0-5,1.6-5,3.7
			c0,2.7,3.4,3.7,7,5c4.5,1.7,9.6,3.9,9.6,10.1c0,5.8-4.6,10.4-13,10.4C323,359.6,318.1,357.6,314.9,354.9z"/>
		<path class="st0" d="M349.1,347.4v-16h-4.8v-5.9l5.2-0.4l0.9-9.2h6.5v9.2h8.6v6.3H357v16c0,3.9,1.5,5.9,4.8,5.9
			c1.1,0,2.5-0.4,3.5-0.8l1.3,5.8c-1.8,0.6-4.2,1.2-6.9,1.2C352,359.6,349.1,354.7,349.1,347.4z"/>
		<path class="st0" d="M369.7,342c0-10.9,7.6-17.6,15.5-17.6c9.1,0,13.9,6.6,13.9,15.9c0,1.5-0.2,3-0.3,3.8h-21.3
			c0.7,6,4.5,9.3,9.9,9.3c2.9,0,5.3-0.9,7.8-2.4l2.7,4.9c-3.2,2.2-7.2,3.6-11.5,3.6C377,359.6,369.7,353.1,369.7,342z M392.2,338.8
			c0-5.2-2.3-8.3-6.9-8.3c-3.9,0-7.4,2.9-8,8.3H392.2z"/>
		<path class="st0" d="M405.4,325.2h6.5l0.6,4.6h0.2c2.8-3,6.1-5.4,10.3-5.4c4.9,0,7.7,2.2,9.3,6c3.2-3.4,6.5-6,10.8-6
			c7.1,0,10.4,4.9,10.4,13.3v21h-7.9v-20c0-5.5-1.6-7.6-5.2-7.6c-2.1,0-4.4,1.4-7,4.2v23.5h-7.9v-20c0-5.5-1.6-7.6-5.2-7.6
			c-2.1,0-4.4,1.4-7,4.2v23.5h-7.9V325.2z"/>
		<path class="st0" d="M482.3,353l4.6-5.4c3.2,3,7.5,5.1,11.6,5.1c5,0,7.8-2.3,7.8-5.8c0-3.7-2.9-4.9-6.9-6.6l-6.1-2.7
			c-4.4-1.8-9-5.3-9-11.8c0-7.1,6.3-12.6,15-12.6c5.2,0,10.3,2.2,13.8,5.7l-4.1,5c-2.8-2.4-5.9-3.8-9.7-3.8c-4.2,0-7,2-7,5.2
			c0,3.5,3.4,4.8,7.1,6.3l6,2.5c5.3,2.2,9,5.6,9,12.1c0,7.2-6,13.3-16,13.3C492.3,359.6,486.5,357.2,482.3,353z"/>
		<path class="st0" d="M524.4,347.4v-16h-4.8v-5.9l5.2-0.4l0.9-9.2h6.5v9.2h8.6v6.3h-8.6v16c0,3.9,1.5,5.9,4.8,5.9
			c1.1,0,2.5-0.4,3.5-0.8l1.3,5.8c-1.8,0.6-4.2,1.2-6.9,1.2C527.3,359.6,524.4,354.7,524.4,347.4z"/>
		<path class="st0" d="M549.2,346.2v-21h7.9v20c0,5.5,1.6,7.6,5.2,7.6c3,0,4.9-1.4,7.4-4.6v-23h7.9v33.6h-6.5l-0.6-4.9h-0.2
			c-3,3.5-6.2,5.8-10.8,5.8C552.3,359.6,549.2,354.7,549.2,346.2z"/>
		<path class="st0" d="M585.7,342c0-10.9,6.9-17.6,14.2-17.6c3.8,0,6.2,1.4,8.8,3.7l-0.3-5.4v-12.2h7.9v48.3h-6.5l-0.6-3.6h-0.2
			c-2.5,2.5-5.9,4.5-9.5,4.5C591.2,359.6,585.7,353.1,585.7,342z M608.5,349.3v-15.6c-2.3-2-4.6-2.8-6.8-2.8c-4.3,0-7.8,4-7.8,11
			c0,7.3,2.8,11.2,7.6,11.2C604.1,353.1,606.2,351.9,608.5,349.3z"/>
		<path class="st0" d="M625.7,314.9c0-2.7,2.1-4.5,4.9-4.5s4.9,1.8,4.9,4.5c0,2.6-2.1,4.5-4.9,4.5S625.7,317.5,625.7,314.9z
			 M626.6,325.2h7.9v33.6h-7.9V325.2z"/>
		<path class="st0" d="M642.6,342c0-11.2,7.6-17.6,16-17.6c8.4,0,16,6.5,16,17.6c0,11.1-7.6,17.6-16,17.6
			C650.2,359.6,642.6,353.1,642.6,342z M666.4,342c0-6.7-3-11.2-7.9-11.2c-4.9,0-7.9,4.5-7.9,11.2c0,6.7,3,11.2,7.9,11.2
			C663.4,353.1,666.4,348.7,666.4,342z"/>
	</g>
</g>
</svg>
